<svg xmlns="http://www.w3.org/2000/svg" width="63" height="66" viewBox="0 0 63 66" fill="none">
  <g filter="url(#filter0_d_services_ring)">
    <path
      d="M30 0C24.0666 0 18.2664 1.7595 13.3329 5.05594C8.39944 8.35238 4.55424 13.0377 2.28361 18.5195C0.0129845 24.0013 -0.581097 30.0333 0.57646 35.8527C1.73402 41.6722 4.59123 47.0177 8.78681 51.2132C12.9824 55.4088 18.3279 58.266 24.1473 59.4236C29.9668 60.5811 35.9987 59.9869 41.4805 57.7163C46.9623 55.4457 51.6476 51.6006 54.944 46.6671C58.2405 41.7337 60 35.9334 60 30C60 22.0435 56.8393 14.4129 51.2132 8.78682C45.5871 3.16073 37.9565 0 30 0ZM30 43.375C27.3545 43.3758 24.7682 42.5921 22.5681 41.1229C20.3681 39.6537 18.6531 37.5652 17.6402 35.1213C16.6272 32.6774 16.3617 29.988 16.8773 27.3933C17.3929 24.7985 18.6664 22.4148 20.5368 20.5439C22.4072 18.673 24.7903 17.3987 27.3849 16.8823C29.9796 16.3659 32.669 16.6305 35.1132 17.6427C37.5574 18.6549 39.6466 20.3693 41.1164 22.5688C42.5863 24.7684 43.3709 27.3545 43.3709 30C43.3709 33.5465 41.9622 36.9479 39.4548 39.456C36.9474 41.9642 33.5465 43.3739 30 43.375Z"
      fill="#EEEEEE"
    />
    <path
      d="M30 0.80957C37.7419 0.809572 45.1663 3.88505 50.6406 9.35938C56.115 14.8337 59.1904 22.2581 59.1904 30C59.1904 35.7734 57.479 41.4174 54.2715 46.2178C51.064 51.0181 46.5048 54.7594 41.1709 56.9688C35.8371 59.1781 29.968 59.7561 24.3057 58.6299C18.6432 57.5036 13.4418 54.723 9.35938 50.6406C5.27709 46.5583 2.4965 41.3576 1.37012 35.6953C0.243785 30.0329 0.821871 24.163 3.03125 18.8291C5.24062 13.4952 8.98187 8.93603 13.7822 5.72852C18.5826 2.521 24.2266 0.80957 30 0.80957ZM35.4229 16.8955C32.8308 15.8221 29.9782 15.5412 27.2266 16.0889C24.4752 16.6366 21.9482 17.9878 19.9648 19.9717C17.9814 21.9558 16.6308 24.4837 16.084 27.2354C15.5372 29.9871 15.8183 32.8399 16.8926 35.4316C17.9669 38.0232 19.7861 40.2379 22.1191 41.7959C24.4522 43.3538 27.1946 44.1854 30 44.1846C33.7611 44.1834 37.3682 42.6883 40.0273 40.0283C42.6864 37.3684 44.1797 33.7611 44.1797 30C44.1797 27.1944 43.3478 24.4518 41.7891 22.1191C40.2303 19.7866 38.0148 17.9689 35.4229 16.8955Z"
      stroke="#050505"
      stroke-width="1.6185"
    />
  </g>
  <defs>
    <filter
      id="filter0_d_services_ring"
      x="0"
      y="0"
      width="62.5434"
      height="65.2023"
      filterUnits="userSpaceOnUse"
      color-interpolation-filters="sRGB"
    >
      <feFlood flood-opacity="0" result="BackgroundImageFix" />
      <feColorMatrix
        in="SourceAlpha"
        type="matrix"
        values="0 0 0 0 0 0 0 0 0 0 0 0 0 0 0 0 0 0 127 0"
        result="hardAlpha"
      />
      <feOffset dx="2.54335" dy="5.20231" />
      <feComposite in2="hardAlpha" operator="out" />
      <feColorMatrix
        type="matrix"
        values="0 0 0 0 0.0196078 0 0 0 0 0.0196078 0 0 0 0 0.0196078 0 0 0 1 0"
      />
      <feBlend mode="normal" in2="BackgroundImageFix" result="effect1_dropShadow_services_ring" />
      <feBlend
        mode="normal"
        in="SourceGraphic"
        in2="effect1_dropShadow_services_ring"
        result="shape"
      />
    </filter>
  </defs>
</svg>
